<svg
    width="242"
    height="150"
    viewBox="0 0 242 206"
    fill="none"
    xmlns="http://www.w3.org/2000/svg"
  >
    <path
      d="M109.55 69.1521L129.155 32.4373L128.977 88.2224C122.561 93.2127 125.769 99.6289 128.977 101.589V159.691C124.557 161.26 109.55 160.404 109.55 159.691V136.7C118.105 131.139 112.58 123.868 109.55 122.442V69.1521Z"
      fill="#9400A8"
    />
    <path
      d="M154.82 14.4364L145.909 0L135.928 19.2485V87.6877C143.948 93.2127 140.205 99.4507 135.928 101.946V159.335C143.414 158.266 152.147 156.127 154.82 154.345V78.5981C147.548 72.6097 151.79 66.954 154.82 64.8746V14.4364Z"
      fill="#C100DB"
    />
    <path
      d="M160.523 64.5182V25.6647L180.128 56.6762V105.154C173.356 110.501 176.742 116.56 180.128 118.699V141.156C177.633 144.364 166.048 150.602 160.523 151.849V78.4199C169.078 74.3207 163.553 65.5875 160.523 64.5182Z"
      fill="#C100DB"
    />
    <path
      d="M187.257 105.154V68.0827L211.496 107.827C207.932 116.204 195.278 130.284 187.257 135.987V118.699C194.529 115.42 191.713 107.471 187.257 105.154Z"
      fill="#E842FF"
    />
    <g filter="url(#filter0_d_3_126)">
      <path
        d="M51.4485 99.2724V73.7859L28.1007 106.758C32.0217 115.848 43.25 128.323 51.4485 135.096V113.531C44.1411 107.114 48.0621 102.302 51.4485 99.2724Z"
        fill="#3A0042"
      />
    </g>
    <path
      d="M58.5775 98.916V63.4488L78.7172 36.5366V75.9247C71.9445 80.7369 73.3704 88.7571 78.7172 90.5394V151.137C73.5486 150.067 61.7856 143.651 58.5775 140.265V113.709C66.5977 108.719 63.0332 101.055 58.5775 98.916Z"
      fill="#51005C"
    />
    <path
      d="M103.491 68.0827L84.9551 38.497V76.2811C93.3317 82.8755 88.1632 87.5094 84.9551 90.0046V153.988C87.2364 155.842 98.2627 158.206 103.491 159.157V135.987C96.3616 130.427 100.52 124.878 103.491 122.798V68.0827Z"
      fill="#660074"
    />
    <path
      d="M19.461 165.907L14.9653 160.878L22.331 137.995L6.86705 151.819L2.66417 147.118L26.1549 126.118L30.6507 131.147L23.2686 154.044L38.7489 140.206L42.9518 144.907L19.461 165.907Z"
      fill="#222124"
    />
    <path
      d="M59.5957 175.476C58.7385 176.699 57.7487 177.768 56.6263 178.681C55.5244 179.59 54.3367 180.341 53.0632 180.933C51.7982 181.513 50.472 181.926 49.0846 182.17C47.6973 182.414 46.3058 182.486 44.9102 182.385C43.523 182.271 42.1502 181.971 40.7919 181.485C39.4253 181.01 38.13 180.345 36.9063 179.487C35.6825 178.63 34.6142 177.64 33.7014 176.518C32.7921 175.416 32.0413 174.228 31.4489 172.955C30.8769 171.678 30.4688 170.346 30.2244 168.958C29.9801 167.571 29.9086 166.179 30.0099 164.784C30.1316 163.385 30.4254 162.008 30.8915 160.653C31.378 159.295 32.0499 158.004 32.9071 156.78C33.7644 155.556 34.7482 154.484 35.8586 153.562C36.9809 152.65 38.1746 151.903 39.4397 151.323C40.7167 150.751 42.0489 150.342 43.4362 150.098C44.8236 149.854 46.2109 149.788 47.5981 149.901C48.9973 150.023 50.37 150.323 51.7163 150.801C53.083 151.276 54.3782 151.941 55.602 152.799C56.8257 153.656 57.894 154.646 58.8069 155.768C59.7281 156.879 60.479 158.066 61.0594 159.331C61.6397 160.596 62.0521 161.923 62.2964 163.31C62.5408 164.697 62.6063 166.084 62.493 167.472C62.3797 168.859 62.0798 170.232 61.5934 171.59C61.1189 172.957 60.453 174.252 59.5957 175.476ZM54.4668 171.883C55.2568 170.755 55.7846 169.542 56.0503 168.244C56.3244 166.933 56.3458 165.652 56.1146 164.399C55.9038 163.142 55.4458 161.945 54.7406 160.807C54.0474 159.677 53.1369 158.718 52.0091 157.928C50.8693 157.129 49.6503 156.597 48.3519 156.332C47.0535 156.066 45.7719 156.044 44.507 156.267C43.2504 156.478 42.0532 156.936 40.9154 157.641C39.7859 158.335 38.8261 159.245 38.0361 160.373C37.2461 161.501 36.7182 162.714 36.4526 164.012C36.1953 165.298 36.1781 166.574 36.4009 167.839C36.6236 169.104 37.0816 170.301 37.7749 171.431C38.4681 172.56 39.3846 173.524 40.5244 174.322C41.6522 175.112 42.8652 175.64 44.1636 175.906C45.474 176.18 46.7556 176.201 48.0085 175.97C49.2734 175.747 50.4665 175.295 51.5875 174.614C52.717 173.921 53.6768 173.01 54.4668 171.883Z"
      fill="#222124"
    />
    <path
      d="M88.1216 192.719C87.6549 193.937 86.982 194.996 86.1027 195.899C85.2424 196.793 84.254 197.488 83.1377 197.986C82.0403 198.475 80.8621 198.745 79.6033 198.796C78.3634 198.838 77.1348 198.626 75.9175 198.16C74.8232 197.74 73.8434 197.145 72.9781 196.374C72.1264 195.608 71.4386 194.702 70.9147 193.654C69.8246 194.083 68.7001 194.295 67.5411 194.29C66.3821 194.285 65.2555 194.073 64.1613 193.653C62.9439 193.187 61.8815 192.521 60.9739 191.655C60.0853 190.781 59.3896 189.793 58.8867 188.69C58.4027 187.579 58.1327 186.401 58.0766 185.156C58.0394 183.902 58.2542 182.667 58.7208 181.449L66.7743 160.44L72.6626 162.697L64.6092 183.706C64.4519 184.117 64.3777 184.535 64.3866 184.962C64.4007 185.376 64.4853 185.769 64.6403 186.142C64.8142 186.507 65.0502 186.833 65.3481 187.119C65.6461 187.406 66.0002 187.628 66.4106 187.785C66.8209 187.943 67.2327 188.014 67.646 188C68.0593 187.986 68.4457 187.899 68.8052 187.739C69.1836 187.57 69.5162 187.337 69.803 187.039C70.095 186.727 70.3197 186.366 70.477 185.956L78.5305 164.946L84.4188 167.203L76.3654 188.213C76.2081 188.623 76.1339 189.042 76.1428 189.469C76.1569 189.882 76.2415 190.275 76.3965 190.649C76.5704 191.013 76.8064 191.339 77.1043 191.626C77.4023 191.913 77.7564 192.135 78.1668 192.292C78.5771 192.449 78.9889 192.521 79.4022 192.507C79.8155 192.493 80.2019 192.405 80.5614 192.245C80.9398 192.076 81.2724 191.843 81.5592 191.545C81.8649 191.239 82.0964 190.88 82.2537 190.47L90.3072 169.461L96.175 171.71L88.1216 192.719Z"
      fill="#222124"
    />
    <path
      d="M96.5296 202.188L90.2948 201.242L95.0207 170.09L116.832 173.399L115.886 179.634L100.31 177.271L99.3638 183.506L108.705 184.923L107.759 191.157L98.418 189.74L96.5296 202.188Z"
      fill="#222124"
    />
    <path
      d="M141.729 190.584C141.812 192.325 141.56 193.979 140.974 195.547C140.387 197.1 139.551 198.474 138.463 199.669C137.375 200.85 136.078 201.806 134.573 202.537C133.083 203.267 131.467 203.673 129.725 203.756C127.984 203.838 126.33 203.586 124.762 203C123.21 202.414 121.836 201.584 120.641 200.512C119.461 199.423 118.505 198.134 117.775 196.644C117.044 195.138 116.637 193.515 116.555 191.774L115.661 172.876L121.939 172.58L122.832 191.477C122.873 192.34 123.072 193.145 123.43 193.891C123.802 194.636 124.287 195.28 124.885 195.824C125.483 196.367 126.17 196.789 126.947 197.09C127.737 197.375 128.564 197.497 129.428 197.457C130.291 197.416 131.095 197.216 131.841 196.859C132.601 196.485 133.252 196 133.796 195.402C134.34 194.805 134.755 194.118 135.04 193.342C135.341 192.565 135.471 191.745 135.43 190.882L134.537 171.984L140.836 171.687L141.729 190.584Z"
      fill="#222124"
    />
    <path
      d="M161.599 198.203L155.507 199.746L149.322 175.314L140.141 177.638L138.594 171.525L163.025 165.339L164.573 171.453L155.414 173.772L161.599 198.203Z"
      fill="#222124"
    />
    <path
      d="M192.775 171.354C193.532 172.925 193.946 174.546 194.02 176.218C194.087 177.876 193.853 179.468 193.319 180.993C192.779 182.505 191.959 183.892 190.859 185.153C189.773 186.408 188.444 187.413 186.873 188.169C185.303 188.926 183.682 189.34 182.01 189.414C180.351 189.481 178.762 189.254 177.244 188.733C175.732 188.193 174.348 187.38 173.094 186.293C171.832 185.193 170.824 183.858 170.068 182.287L161.861 165.241L167.523 162.515L175.73 179.561C176.105 180.34 176.603 181.002 177.223 181.549C177.857 182.089 178.556 182.493 179.318 182.759C180.081 183.026 180.878 183.146 181.711 183.12C182.55 183.073 183.359 182.862 184.138 182.487C184.916 182.113 185.579 181.615 186.126 180.994C186.679 180.354 187.089 179.652 187.356 178.89C187.623 178.127 187.736 177.333 187.696 176.507C187.669 175.674 187.468 174.868 187.094 174.09L178.887 157.044L184.569 154.308L192.775 171.354Z"
      fill="#222124"
    />
    <path
      d="M193.212 154.801L200.928 164.777L205.917 160.919C206.6 160.391 207.145 159.766 207.55 159.045C207.947 158.312 208.196 157.545 208.298 156.744C208.401 155.943 208.347 155.142 208.135 154.342C207.927 153.522 207.558 152.77 207.03 152.087C206.501 151.403 205.87 150.863 205.138 150.466C204.408 150.049 203.642 149.79 202.841 149.687C202.039 149.585 201.239 149.639 200.439 149.85C199.631 150.05 198.884 150.414 198.201 150.943L193.212 154.801ZM208.631 174.737L203.642 178.595L184.366 153.67L194.343 145.954C195.258 145.246 196.233 144.687 197.267 144.276C198.292 143.854 199.34 143.58 200.411 143.456C201.484 143.311 202.559 143.313 203.637 143.461C204.717 143.589 205.758 143.857 206.76 144.267C207.774 144.668 208.724 145.202 209.61 145.869C210.507 146.527 211.31 147.313 212.018 148.229C212.681 149.086 213.216 150.005 213.624 150.987C214.042 151.959 214.331 152.967 214.49 154.011C214.661 155.046 214.694 156.094 214.589 157.156C214.485 158.219 214.248 159.253 213.879 160.261L221.684 164.642L216.383 168.741L210.325 165.399L204.773 169.748L208.631 174.737Z"
      fill="#222124"
    />
    <path
      d="M241.138 142.537L226.982 158.85L203.184 138.199L217.34 121.886L222.103 126.019L212.08 137.57L216.843 141.703L223.626 133.886L228.388 138.019L221.606 145.836L226.352 149.954L236.375 138.404L241.138 142.537Z"
      fill="#222124"
    />
    <defs>
      <filter
        id="filter0_d_3_126"
        x="24.1007"
        y="73.7859"
        width="31.3478"
        height="69.3101"
        filterUnits="userSpaceOnUse"
        color-interpolation-filters="sRGB"
      >
        <feFlood flood-opacity="0" result="BackgroundImageFix" />
        <feColorMatrix
          in="SourceAlpha"
          type="matrix"
          values="0 0 0 0 0 0 0 0 0 0 0 0 0 0 0 0 0 0 127 0"
          result="hardAlpha"
        />
        <feOffset dy="4" />
        <feGaussianBlur stdDeviation="2" />
        <feComposite in2="hardAlpha" operator="out" />
        <feColorMatrix
          type="matrix"
          values="0 0 0 0 0 0 0 0 0 0 0 0 0 0 0 0 0 0 0.25 0"
        />
        <feBlend
          mode="normal"
          in2="BackgroundImageFix"
          result="effect1_dropShadow_3_126"
        />
        <feBlend
          mode="normal"
          in="SourceGraphic"
          in2="effect1_dropShadow_3_126"
          result="shape"
        />
      </filter>
    </defs>
</svg>