<svg width="226" height="28" viewBox="0 0 226 28" fill="none" xmlns="http://www.w3.org/2000/svg">
    <path d="M21.75 27H16.0537L5.79297 9.48438V27H0.467773V0.392578H6.16406L16.4248 17.9268V0.392578H21.75V27ZM52.7734 13.8076C52.7734 15.0693 52.6064 16.2878 52.2725 17.4629C51.9508 18.6257 51.4932 19.7204 50.8994 20.7471C50.3057 21.7614 49.5882 22.6891 48.7471 23.5303C47.9059 24.3714 46.9782 25.0951 45.9639 25.7012C44.9495 26.2949 43.8548 26.7526 42.6797 27.0742C41.5046 27.4082 40.2861 27.5752 39.0244 27.5752C37.7627 27.5752 36.5443 27.4082 35.3691 27.0742C34.2064 26.7526 33.1117 26.2949 32.085 25.7012C31.0706 25.0951 30.1429 24.3714 29.3018 23.5303C28.4606 22.6891 27.737 21.7614 27.1309 20.7471C26.5371 19.7204 26.0732 18.6257 25.7393 17.4629C25.4176 16.2878 25.2568 15.0693 25.2568 13.8076C25.2568 12.5459 25.4176 11.3275 25.7393 10.1523C26.0732 8.97721 26.5371 7.88249 27.1309 6.86816C27.737 5.85384 28.4606 4.92611 29.3018 4.08496C30.1429 3.24382 31.0706 2.52637 32.085 1.93262C33.1117 1.33887 34.2064 0.881185 35.3691 0.55957C36.5443 0.225586 37.7627 0.0585938 39.0244 0.0585938C40.2861 0.0585938 41.5046 0.225586 42.6797 0.55957C43.8548 0.881185 44.9495 1.33887 45.9639 1.93262C46.9782 2.52637 47.9059 3.24382 48.7471 4.08496C49.5882 4.92611 50.3057 5.85384 50.8994 6.86816C51.4932 7.88249 51.9508 8.97721 52.2725 10.1523C52.6064 11.3275 52.7734 12.5459 52.7734 13.8076ZM47.4854 13.8076C47.4854 12.6449 47.2627 11.5501 46.8174 10.5234C46.3721 9.48438 45.766 8.58757 44.999 7.83301C44.2445 7.06608 43.3477 6.45996 42.3086 6.01465C41.2819 5.56934 40.1872 5.34668 39.0244 5.34668C37.8493 5.34668 36.7484 5.56934 35.7217 6.01465C34.695 6.45996 33.7982 7.06608 33.0312 7.83301C32.2643 8.58757 31.6582 9.48438 31.2129 10.5234C30.7676 11.5501 30.5449 12.6449 30.5449 13.8076C30.5449 14.9704 30.7676 16.0651 31.2129 17.0918C31.6582 18.1061 32.2643 18.9967 33.0312 19.7637C33.7982 20.5306 34.695 21.1367 35.7217 21.582C36.7484 22.0273 37.8493 22.25 39.0244 22.25C40.1872 22.25 41.2819 22.0273 42.3086 21.582C43.3477 21.1367 44.2445 20.5306 44.999 19.7637C45.766 18.9967 46.3721 18.1061 46.8174 17.0918C47.2627 16.0651 47.4854 14.9704 47.4854 13.8076ZM82.6836 19.3926C82.6836 20.4935 82.4733 21.5326 82.0527 22.5098C81.6445 23.4746 81.0755 24.3219 80.3457 25.0518C79.6283 25.7692 78.7809 26.3382 77.8037 26.7588C76.8389 27.167 75.806 27.3711 74.7051 27.3711C73.7155 27.3711 72.763 27.1979 71.8477 26.8516C70.9447 26.5052 70.1283 25.998 69.3984 25.3301C68.6686 25.998 67.846 26.5052 66.9307 26.8516C66.0153 27.1979 65.0628 27.3711 64.0732 27.3711C62.9723 27.3711 61.9333 27.167 60.9561 26.7588C59.9912 26.3382 59.1439 25.7692 58.4141 25.0518C57.6966 24.3219 57.1276 23.4746 56.707 22.5098C56.2988 21.5326 56.0947 20.4935 56.0947 19.3926V0.392578H61.4199V19.3926C61.4199 19.7637 61.488 20.1162 61.624 20.4502C61.7601 20.7718 61.9456 21.0563 62.1807 21.3037C62.4281 21.5387 62.7126 21.7243 63.0342 21.8604C63.3558 21.9964 63.7021 22.0645 64.0732 22.0645C64.4443 22.0645 64.7907 21.9964 65.1123 21.8604C65.4339 21.7243 65.7122 21.5387 65.9473 21.3037C66.1947 21.0563 66.3864 20.7718 66.5225 20.4502C66.6585 20.1162 66.7266 19.7637 66.7266 19.3926V0.392578H72.0518V19.3926C72.0518 19.7637 72.1198 20.1162 72.2559 20.4502C72.3919 20.7718 72.5775 21.0563 72.8125 21.3037C73.0599 21.5387 73.3444 21.7243 73.666 21.8604C73.9876 21.9964 74.334 22.0645 74.7051 22.0645C75.0762 22.0645 75.4225 21.9964 75.7441 21.8604C76.0658 21.7243 76.3441 21.5387 76.5791 21.3037C76.8265 21.0563 77.0182 20.7718 77.1543 20.4502C77.3027 20.1162 77.377 19.7637 77.377 19.3926V0.392578H82.6836V19.3926ZM92.7773 27H87.4521V0.392578H106.081V5.71777H92.7773V11.043H100.756V16.3682H92.7773V27ZM129.812 16.3682C129.812 17.8402 129.534 19.2256 128.978 20.5244C128.421 21.8109 127.66 22.9365 126.695 23.9014C125.73 24.8538 124.599 25.6084 123.3 26.165C122.013 26.7217 120.634 27 119.162 27C117.69 27 116.305 26.7217 115.006 26.165C113.719 25.6084 112.594 24.8538 111.629 23.9014C110.676 22.9365 109.922 21.8109 109.365 20.5244C108.809 19.2256 108.53 17.8402 108.53 16.3682V0.392578H113.837V16.3682C113.837 17.098 113.973 17.7845 114.245 18.4277C114.53 19.071 114.913 19.6338 115.396 20.1162C115.878 20.5986 116.441 20.9821 117.084 21.2666C117.74 21.5387 118.432 21.6748 119.162 21.6748C119.892 21.6748 120.578 21.5387 121.222 21.2666C121.877 20.9821 122.446 20.5986 122.929 20.1162C123.411 19.6338 123.788 19.071 124.061 18.4277C124.345 17.7845 124.487 17.098 124.487 16.3682V0.392578H129.812V16.3682ZM145.603 27H140.296V5.71777H132.299V0.392578H153.581V5.71777H145.603V27ZM177.387 16.3682C177.387 17.8402 177.108 19.2256 176.552 20.5244C175.995 21.8109 175.234 22.9365 174.27 23.9014C173.305 24.8538 172.173 25.6084 170.874 26.165C169.588 26.7217 168.208 27 166.736 27C165.264 27 163.879 26.7217 162.58 26.165C161.294 25.6084 160.168 24.8538 159.203 23.9014C158.251 22.9365 157.496 21.8109 156.939 20.5244C156.383 19.2256 156.104 17.8402 156.104 16.3682V0.392578H161.411V16.3682C161.411 17.098 161.547 17.7845 161.819 18.4277C162.104 19.071 162.487 19.6338 162.97 20.1162C163.452 20.5986 164.015 20.9821 164.658 21.2666C165.314 21.5387 166.007 21.6748 166.736 21.6748C167.466 21.6748 168.153 21.5387 168.796 21.2666C169.451 20.9821 170.021 20.5986 170.503 20.1162C170.985 19.6338 171.363 19.071 171.635 18.4277C171.919 17.7845 172.062 17.098 172.062 16.3682V0.392578H177.387V16.3682ZM187.332 5.71777V16.3682H192.657C193.387 16.3682 194.074 16.2321 194.717 15.96C195.36 15.6755 195.923 15.292 196.405 14.8096C196.888 14.3271 197.265 13.7643 197.537 13.1211C197.822 12.4655 197.964 11.7728 197.964 11.043C197.964 10.3132 197.822 9.62663 197.537 8.9834C197.265 8.3278 196.888 7.75879 196.405 7.27637C195.923 6.79395 195.36 6.41667 194.717 6.14453C194.074 5.86003 193.387 5.71777 192.657 5.71777H187.332ZM187.332 27H182.007V0.392578H192.657C193.634 0.392578 194.575 0.522461 195.478 0.782227C196.381 1.02962 197.222 1.38835 198.001 1.8584C198.793 2.31608 199.51 2.87272 200.153 3.52832C200.809 4.17155 201.366 4.889 201.823 5.68066C202.293 6.47233 202.652 7.31966 202.899 8.22266C203.159 9.12565 203.289 10.0658 203.289 11.043C203.289 11.9583 203.172 12.849 202.937 13.7148C202.714 14.5807 202.386 15.4033 201.953 16.1826C201.533 16.9619 201.013 17.6794 200.395 18.335C199.776 18.9906 199.083 19.5596 198.316 20.042L201.267 27H195.607L193.288 21.6377L187.332 21.6748V27ZM225.035 27H206.796V0.392578H225.035V5.71777H212.121V11.043H220.86V16.3682H212.121V21.6748H225.035V27Z" fill="black"/>
</svg>